<svg width="236" height="238" viewBox="0 0 236 238" fill="none" xmlns="http://www.w3.org/2000/svg">
<path fill-rule="evenodd" clip-rule="evenodd" d="M30.3316 207.325C82.9659 202.56 80.8698 174.955 80.8698 174.955L72.1041 166.065L72.02 165.98L63.2547 157.09C63.2547 157.09 35.703 154.629 30.248 207.24L30.1432 207.344L30.2376 207.334L30.2269 207.428L30.3316 207.325Z" fill="#EC9B3A"/>
<path fill-rule="evenodd" clip-rule="evenodd" d="M56.9951 151.734L88.8443 183.173L99.0125 172.844L67.1691 141.403L56.9951 151.734Z" fill="#C23537"/>
<path fill-rule="evenodd" clip-rule="evenodd" d="M125.581 112.182C94.8684 81.864 45.8613 81.7641 16.1212 111.968C9.2107 118.987 3.96835 127.03 0.350586 135.611C28.498 123.234 62.8434 128.678 86.4187 151.953C109.994 175.231 115.919 209.539 103.951 237.889C112.469 234.15 120.426 228.788 127.341 221.77C157.082 191.564 156.292 142.502 125.581 112.182Z" fill="#2C4056"/>
<path fill-rule="evenodd" clip-rule="evenodd" d="M98.8048 167.81C111.636 189.292 113.42 215.447 103.951 237.889C112.469 234.15 120.426 228.788 127.341 221.77C152.325 196.391 155.75 157.704 137.994 128.008L98.8048 167.81Z" fill="#12161A"/>
<path fill-rule="evenodd" clip-rule="evenodd" d="M108.742 60.4709C83.3615 86.2496 65.6794 115.313 56.8625 142.677C64.949 146.855 72.5814 152.307 79.42 159.061C86.2591 165.812 91.812 173.373 96.1028 181.415C123.294 172.195 152.068 154.083 177.448 128.306C217.767 87.3604 238.707 38.1129 235.446 0.599759C197.937 -2.13567 149.059 19.5228 108.742 60.4709Z" fill="#FCFAF9"/>
<path fill-rule="evenodd" clip-rule="evenodd" d="M235.446 0.599781C231.165 0.287997 78.2378 157.938 78.2378 157.938C78.6316 158.314 79.0312 158.678 79.42 159.061C86.2591 165.812 91.8121 173.373 96.1028 181.415C123.294 172.195 152.068 154.083 177.448 128.306C217.767 87.3604 238.707 38.1129 235.446 0.599781Z" fill="#C1C0BB"/>
<path fill-rule="evenodd" clip-rule="evenodd" d="M83.0616 140.6C66.2921 157.629 54.7744 175.33 52.0197 186.888C63.519 183.967 81.0351 172.185 97.8037 155.154C114.572 138.126 126.089 120.419 128.845 108.866C117.342 111.787 99.8284 123.57 83.0616 140.6Z" fill="#2D5766"/>
<path fill-rule="evenodd" clip-rule="evenodd" d="M52.1712 186.336C52.1267 186.519 52.0629 186.71 52.0197 186.888C63.519 183.967 81.0351 172.185 97.8037 155.154C114.572 138.126 126.089 120.419 128.845 108.866C128.668 108.914 128.473 108.982 128.297 109.022L52.1712 186.336Z" fill="#12161A"/>
<path fill-rule="evenodd" clip-rule="evenodd" d="M171.095 15.1682C179.883 22.7815 188.639 30.8357 197.277 39.3641C205.912 47.8903 214.122 56.569 221.842 65.2625C232.364 42.4343 237.126 19.939 235.446 0.599804C216.108 -0.810649 193.743 4.31198 171.095 15.1682Z" fill="#DF5539"/>
<path fill-rule="evenodd" clip-rule="evenodd" d="M198.109 40.1986C206.433 48.4557 214.372 56.8514 221.842 65.2624C232.364 42.4342 237.127 19.9389 235.446 0.599729C235.097 0.574534 234.756 0.555188 234.406 0.534492L198.109 40.1986Z" fill="#C23537"/>
<path fill-rule="evenodd" clip-rule="evenodd" d="M176.754 60.6356L176.542 60.4246C172.479 56.4101 167.118 54.1925 161.448 54.1812C155.779 54.1691 150.489 56.3624 146.554 60.3589C138.532 68.5089 138.655 81.8851 146.829 90.1755L147.04 90.3856C155.44 98.6792 168.893 98.7048 177.026 90.4423C185.049 82.294 184.925 68.9229 176.754 60.6356Z" fill="#EC9B3A"/>
<path fill-rule="evenodd" clip-rule="evenodd" d="M172.958 64.0626C166.599 57.7801 156.412 57.7603 150.255 64.0131C144.093 70.2735 144.26 80.4652 150.623 86.7464C156.981 93.0239 167.164 93.0482 173.326 86.7895C179.481 80.5372 179.318 70.3392 172.958 64.0626Z" fill="#266B64"/>
<path fill-rule="evenodd" clip-rule="evenodd" d="M30.3316 207.325C82.9659 202.56 80.8698 174.955 80.8698 174.955L72.1041 166.065L72.02 165.98L63.2547 157.091C63.2547 157.091 35.703 154.628 30.248 207.24L30.1432 207.343L30.2376 207.334L30.2269 207.428L30.3316 207.325Z" fill="#EC9B3A"/>
<path fill-rule="evenodd" clip-rule="evenodd" d="M56.9951 151.734L88.8443 183.173L99.0125 172.844L67.1691 141.403L56.9951 151.734Z" fill="#C23537"/>
<path fill-rule="evenodd" clip-rule="evenodd" d="M125.581 112.182C94.8684 81.8639 45.8613 81.764 16.1212 111.968C9.2107 118.987 3.96835 127.03 0.350586 135.611C28.498 123.234 62.8434 128.678 86.4187 151.953C109.994 175.231 115.919 209.539 103.951 237.889C112.469 234.15 120.426 228.788 127.341 221.77C157.082 191.564 156.292 142.502 125.581 112.182Z" fill="#2C4056"/>
<path fill-rule="evenodd" clip-rule="evenodd" d="M98.8048 167.81C111.636 189.292 113.42 215.447 103.951 237.889C112.469 234.15 120.426 228.788 127.341 221.77C152.325 196.391 155.75 157.704 137.994 128.008L98.8048 167.81Z" fill="#12161A"/>
<path fill-rule="evenodd" clip-rule="evenodd" d="M108.742 60.471C83.3615 86.2496 65.6794 115.313 56.8625 142.677C64.949 146.855 72.5814 152.307 79.42 159.061C86.2591 165.812 91.812 173.373 96.1028 181.415C123.294 172.195 152.068 154.083 177.448 128.306C217.767 87.3604 238.707 38.1129 235.446 0.599782C197.937 -2.13564 149.059 19.5228 108.742 60.471Z" fill="#FCFAF9"/>
<path fill-rule="evenodd" clip-rule="evenodd" d="M171.033 15.089C167.381 16.7892 164.823 18.2743 164.823 18.2743C164.673 18.2397 197.014 43.671 218.441 72.3502C218.441 72.3502 221.138 67.0643 221.842 65.2624C221.381 47.4088 195.416 15.8866 171.033 15.089Z" fill="#2C4056"/>
<path fill-rule="evenodd" clip-rule="evenodd" d="M83.0616 140.6C66.2921 157.629 54.7744 175.33 52.0197 186.888C63.519 183.967 81.0351 172.185 97.8037 155.154C114.572 138.126 126.089 120.419 128.845 108.866C117.342 111.787 99.8284 123.57 83.0616 140.6Z" fill="#2D5766"/>
<path fill-rule="evenodd" clip-rule="evenodd" d="M52.1712 186.336C52.1267 186.519 52.0629 186.71 52.0197 186.888C63.519 183.967 81.0351 172.185 97.8037 155.154C114.572 138.126 126.089 120.419 128.845 108.866C128.668 108.914 128.473 108.982 128.297 109.022L52.1712 186.336Z" fill="#12161A"/>
<path fill-rule="evenodd" clip-rule="evenodd" d="M170.988 15.1142C179.776 22.7275 188.639 30.8357 197.277 39.3641C205.912 47.8902 214.122 56.5689 221.842 65.2624C232.364 42.4342 237.126 19.939 235.446 0.599768C216.108 -0.810686 193.635 4.25795 170.988 15.1142Z" fill="#DF5539"/>
<path fill-rule="evenodd" clip-rule="evenodd" d="M198.109 40.1986C206.433 48.4557 214.372 56.8514 221.842 65.2624C232.364 42.4342 237.127 19.9389 235.446 0.599729C235.097 0.574534 234.756 0.555188 234.406 0.534492L198.109 40.1986Z" fill="#C23537"/>
<path fill-rule="evenodd" clip-rule="evenodd" d="M195.88 38.1296C204.204 46.3867 214.372 56.8744 221.842 65.285C232.364 42.4567 237.126 19.9615 235.446 0.622743C235.097 0.597098 234.756 0.577752 234.405 0.557056L195.88 38.1296Z" fill="#C23537"/>
<path fill-rule="evenodd" clip-rule="evenodd" d="M176.754 60.6356L176.542 60.4246C172.479 56.4101 167.118 54.1925 161.448 54.1813C155.779 54.1691 150.489 56.3624 146.554 60.3589C138.532 68.509 138.655 81.8851 146.829 90.1755L147.04 90.3856C155.44 98.6792 168.893 98.7048 177.026 90.4423C185.049 82.2941 184.925 68.9229 176.754 60.6356Z" fill="#EC9B3A"/>
<path fill-rule="evenodd" clip-rule="evenodd" d="M172.958 64.0626C166.599 57.7801 156.412 57.7603 150.255 64.0131C144.093 70.2735 144.26 80.4652 150.623 86.7463C156.981 93.0239 167.164 93.0482 173.326 86.7895C179.481 80.5372 179.318 70.3392 172.958 64.0626Z" fill="#2C4056"/>
<path fill-rule="evenodd" clip-rule="evenodd" d="M96.1028 181.415C93.2739 176.113 89.8958 171.019 85.9629 166.23C89.8931 162.858 93.8682 159.151 97.8038 155.154C114.572 138.126 126.089 120.419 128.845 108.865C127.571 109.189 126.224 109.621 124.813 110.157C131.473 103.35 138.503 96.1763 145.66 88.891C146.03 89.331 146.419 89.7593 146.829 90.1755L147.04 90.3856C151.25 94.5427 156.731 96.6222 162.174 96.6226C167.591 96.6226 172.97 94.5634 177.027 90.4423C185.049 82.2941 184.925 68.9229 176.754 60.6356L176.542 60.4246C176.064 59.9517 175.568 59.5045 175.055 59.0821C180.788 53.2954 186.385 47.6639 191.714 42.3272C200.602 51.0477 210.289 61.4463 218.411 72.3102C208.618 91.4474 194.834 110.65 177.448 128.306C167.955 137.947 157.986 146.518 147.804 153.95C133.425 164.446 118.62 172.675 104.119 178.457C101.435 179.528 98.7617 180.514 96.1028 181.415Z" fill="#DDDBD6"/>
<path fill-rule="evenodd" clip-rule="evenodd" d="M218.411 72.3102C210.289 61.4463 200.602 51.0477 191.714 42.3272C193.127 40.9122 194.523 39.5161 195.896 38.1448C204.213 46.3961 214.368 56.8708 221.833 65.2746C220.752 67.6181 219.612 69.9617 218.411 72.3102Z" fill="#2A3A4F"/>
<path fill-rule="evenodd" clip-rule="evenodd" d="M79.2191 158.866C78.8945 158.553 78.5641 158.25 78.2378 157.938C78.2378 157.938 98.6745 136.871 124.813 110.157C126.224 109.621 127.571 109.189 128.845 108.866C128.669 108.914 128.473 108.982 128.297 109.022L79.2191 158.866Z" fill="#304F5D"/>
<path fill-rule="evenodd" clip-rule="evenodd" d="M85.9629 166.23C83.9306 163.755 81.7504 161.361 79.42 159.061C79.3535 158.995 79.2865 158.931 79.2191 158.866L128.297 109.022C128.473 108.982 128.669 108.914 128.845 108.866C126.089 120.419 114.572 138.126 97.8038 155.154C93.8682 159.151 89.8931 162.858 85.9629 166.23Z" fill="#101418"/>
<path fill-rule="evenodd" clip-rule="evenodd" d="M197.223 36.8203C210.627 23.4446 221.888 12.4062 228.661 6.15926L197.223 36.8203Z" fill="#D14E36"/>
<path fill-rule="evenodd" clip-rule="evenodd" d="M235.389 17.1867C235.39 17.1716 235.391 17.1561 235.393 17.141C235.392 17.1556 235.39 17.1721 235.389 17.1867Z" fill="#DDDBD6"/>
<path fill-rule="evenodd" clip-rule="evenodd" d="M235.393 17.1365C235.649 14.1631 235.777 11.2383 235.776 8.37012C235.776 8.36292 235.776 8.35527 235.776 8.34762C235.775 5.71523 235.665 3.13052 235.446 0.5998C235.667 3.14582 235.777 5.74627 235.777 8.39396C235.776 11.2563 235.648 14.1707 235.393 17.1365Z" fill="#DDDBD6"/>
<path fill-rule="evenodd" clip-rule="evenodd" d="M235.776 8.37008C235.775 5.73769 235.665 3.15298 235.446 0.622711C235.41 0.620011 235.375 0.617312 235.339 0.615062C235.375 0.604714 235.407 0.599316 235.433 0.599316C235.437 0.599316 235.442 0.599766 235.446 0.599766C235.665 3.13048 235.775 5.71519 235.776 8.34759C235.776 8.35524 235.776 8.36288 235.776 8.37008Z" fill="#B23436"/>
<path fill-rule="evenodd" clip-rule="evenodd" d="M221.833 65.2746C214.368 56.8708 204.213 46.3961 195.896 38.1448C196.342 37.699 196.781 37.2612 197.223 36.8203L228.661 6.15924C232.319 2.78584 234.669 0.807161 235.339 0.615051C235.375 0.617301 235.41 0.62 235.446 0.6227C235.666 3.15297 235.775 5.73767 235.776 8.37007C235.777 11.2382 235.649 14.1631 235.393 17.1365L235.393 17.141C235.391 17.1563 235.39 17.172 235.389 17.1873C234.081 32.3208 229.477 48.6991 221.833 65.2746Z" fill="#B23436"/>
<path fill-rule="evenodd" clip-rule="evenodd" d="M162.174 96.6227C156.73 96.6222 151.25 94.5427 147.04 90.3856L146.829 90.1755C146.419 89.7594 146.03 89.331 145.66 88.891C146.856 87.6736 148.06 86.4489 149.261 85.2266C149.678 85.7543 150.132 86.2618 150.623 86.7463C153.811 89.8934 157.959 91.469 162.081 91.469C166.181 91.469 170.253 89.9105 173.325 86.7895C179.481 80.5372 179.318 70.3392 172.958 64.0626C172.473 63.5834 171.966 63.1407 171.44 62.7344C172.651 61.5098 173.854 60.2946 175.055 59.0821C175.568 59.5046 176.064 59.9518 176.542 60.4246L176.754 60.6356C184.925 68.9229 185.049 82.2941 177.026 90.4423C172.97 94.5634 167.59 96.6227 162.174 96.6227Z" fill="#D38D37"/>
</svg>
