<svg width="375" height="284" viewBox="0 0 375 284" fill="none" xmlns="http://www.w3.org/2000/svg">
<rect x="102" y="12" width="171" height="272" rx="10" fill="white"/>
<g filter="url(#filter0_d)">
<path d="M102 22C102 16.4772 106.477 12 112 12H263C268.523 12 273 16.4772 273 22V218H102V22Z" fill="#2F2F2F"/>
</g>
<path d="M122.413 241H121.094V231.618H117.688V230.431H125.818V231.618H122.413V241ZM126.648 241V233.104H127.849V234.276H127.966C128.083 233.891 128.347 233.576 128.757 233.332C129.167 233.087 129.634 232.965 130.156 232.965C130.395 232.965 130.605 232.978 130.786 233.002V234.262C130.615 234.213 130.346 234.188 129.98 234.188C129.38 234.188 128.884 234.369 128.493 234.73C128.103 235.092 127.907 235.551 127.907 236.107V241H126.648ZM134.552 240.033C135.202 240.033 135.739 239.845 136.164 239.469C136.593 239.093 136.808 238.622 136.808 238.056V237.331L134.684 237.47C134.088 237.509 133.651 237.633 133.373 237.843C133.095 238.053 132.956 238.358 132.956 238.759C132.956 239.154 133.104 239.467 133.402 239.696C133.7 239.921 134.083 240.033 134.552 240.033ZM134.318 241.139C133.541 241.139 132.902 240.927 132.399 240.502C131.901 240.072 131.652 239.501 131.652 238.788C131.652 238.085 131.901 237.533 132.399 237.133C132.897 236.732 133.607 236.505 134.53 236.452L136.808 236.312V235.595C136.808 235.106 136.657 234.733 136.354 234.474C136.051 234.215 135.607 234.086 135.021 234.086C134.547 234.086 134.154 234.171 133.842 234.342C133.529 234.513 133.329 234.755 133.241 235.067H131.967C132.05 234.438 132.374 233.93 132.941 233.544C133.512 233.158 134.22 232.965 135.065 232.965C136.022 232.965 136.762 233.197 137.284 233.661C137.807 234.125 138.068 234.77 138.068 235.595V241H136.867V239.835H136.749C136.496 240.255 136.159 240.578 135.739 240.802C135.319 241.027 134.845 241.139 134.318 241.139ZM140.186 241V233.104H141.446V241H140.186ZM141.439 231.244C141.268 231.415 141.06 231.5 140.816 231.5C140.572 231.5 140.364 231.415 140.194 231.244C140.023 231.068 139.937 230.861 139.937 230.622C139.937 230.382 140.023 230.177 140.194 230.006C140.364 229.831 140.572 229.743 140.816 229.743C141.06 229.743 141.268 229.831 141.439 230.006C141.61 230.177 141.695 230.382 141.695 230.622C141.695 230.861 141.61 231.068 141.439 231.244ZM143.608 241V233.104H144.81V234.35H144.927C145.347 233.427 146.138 232.965 147.3 232.965C148.184 232.965 148.865 233.219 149.343 233.727C149.822 234.23 150.061 234.95 150.061 235.888V241H148.801V236.195C148.801 235.487 148.647 234.962 148.34 234.621C148.037 234.274 147.571 234.101 146.941 234.101C146.306 234.101 145.801 234.301 145.425 234.701C145.054 235.097 144.868 235.639 144.868 236.327V241H143.608ZM152.157 241V233.104H153.417V241H152.157ZM153.41 231.244C153.239 231.415 153.031 231.5 152.787 231.5C152.543 231.5 152.336 231.415 152.165 231.244C151.994 231.068 151.908 230.861 151.908 230.622C151.908 230.382 151.994 230.177 152.165 230.006C152.336 229.831 152.543 229.743 152.787 229.743C153.031 229.743 153.239 229.831 153.41 230.006C153.581 230.177 153.666 230.382 153.666 230.622C153.666 230.861 153.581 231.068 153.41 231.244ZM155.58 241V233.104H156.781V234.35H156.898C157.318 233.427 158.109 232.965 159.271 232.965C160.155 232.965 160.836 233.219 161.314 233.727C161.793 234.23 162.032 234.95 162.032 235.888V241H160.772V236.195C160.772 235.487 160.619 234.962 160.311 234.621C160.008 234.274 159.542 234.101 158.912 234.101C158.277 234.101 157.772 234.301 157.396 234.701C157.025 235.097 156.839 235.639 156.839 236.327V241H155.58ZM169.007 239C169.426 238.488 169.636 237.799 169.636 236.935C169.636 236.071 169.426 235.382 169.007 234.87C168.587 234.357 168.015 234.101 167.293 234.101C166.57 234.101 166.008 234.354 165.608 234.862C165.208 235.37 165.007 236.061 165.007 236.935C165.007 237.809 165.208 238.5 165.608 239.008C166.008 239.516 166.57 239.77 167.293 239.77C168.02 239.77 168.591 239.513 169.007 239ZM167.351 244.032C166.409 244.032 165.645 243.837 165.059 243.446C164.478 243.056 164.138 242.531 164.041 241.872H165.374C165.442 242.199 165.65 242.458 165.996 242.648C166.343 242.838 166.795 242.934 167.351 242.934C168.059 242.934 168.611 242.768 169.007 242.436C169.407 242.108 169.607 241.654 169.607 241.073V239.521H169.49C169.241 239.955 168.902 240.292 168.472 240.531C168.042 240.766 167.556 240.883 167.014 240.883C165.999 240.883 165.193 240.524 164.597 239.806C164.002 239.083 163.704 238.126 163.704 236.935C163.704 235.744 164.004 234.784 164.605 234.057C165.205 233.329 166.008 232.965 167.014 232.965C167.566 232.965 168.069 233.092 168.523 233.346C168.977 233.595 169.319 233.932 169.549 234.357H169.666V233.104H170.867V241.139C170.867 242.023 170.549 242.726 169.915 243.249C169.28 243.771 168.425 244.032 167.351 244.032ZM176.993 241V233.104H178.194V234.35H178.312C178.492 233.91 178.773 233.571 179.154 233.332C179.535 233.087 179.989 232.965 180.516 232.965C181.034 232.965 181.478 233.09 181.849 233.339C182.225 233.588 182.508 233.925 182.699 234.35H182.816C183.031 233.925 183.353 233.588 183.783 233.339C184.213 233.09 184.696 232.965 185.233 232.965C186.039 232.965 186.659 233.19 187.093 233.639C187.528 234.083 187.745 234.718 187.745 235.543V241H186.486V235.836C186.486 234.679 185.931 234.101 184.823 234.101C184.286 234.101 183.846 234.276 183.505 234.628C183.163 234.979 182.992 235.412 182.992 235.924V241H181.732V235.639C181.732 235.17 181.581 234.796 181.278 234.518C180.98 234.24 180.582 234.101 180.084 234.101C179.571 234.101 179.137 234.296 178.78 234.687C178.429 235.077 178.253 235.551 178.253 236.107V241H176.993ZM191.321 239.235C191.726 239.748 192.303 240.004 193.05 240.004C193.797 240.004 194.373 239.748 194.778 239.235C195.183 238.717 195.386 237.99 195.386 237.052C195.386 236.115 195.183 235.39 194.778 234.877C194.373 234.359 193.797 234.101 193.05 234.101C192.303 234.101 191.726 234.359 191.321 234.877C190.916 235.39 190.713 236.115 190.713 237.052C190.713 237.99 190.916 238.717 191.321 239.235ZM195.708 240.048C195.059 240.775 194.173 241.139 193.05 241.139C191.927 241.139 191.038 240.775 190.384 240.048C189.734 239.315 189.41 238.317 189.41 237.052C189.41 235.783 189.734 234.784 190.384 234.057C191.033 233.329 191.922 232.965 193.05 232.965C194.178 232.965 195.066 233.329 195.716 234.057C196.365 234.784 196.69 235.783 196.69 237.052C196.69 238.317 196.363 239.315 195.708 240.048ZM201.35 241.139C200.339 241.139 199.533 240.768 198.933 240.026C198.332 239.284 198.032 238.292 198.032 237.052C198.032 235.817 198.332 234.828 198.933 234.086C199.538 233.339 200.344 232.965 201.35 232.965C201.902 232.965 202.395 233.09 202.829 233.339C203.269 233.583 203.601 233.92 203.825 234.35H203.935V229.97H205.195V241H203.994V239.74H203.877C203.628 240.18 203.281 240.524 202.837 240.773C202.392 241.017 201.897 241.139 201.35 241.139ZM201.643 234.101C200.925 234.101 200.361 234.364 199.951 234.892C199.541 235.414 199.336 236.134 199.336 237.052C199.336 237.975 199.538 238.698 199.943 239.22C200.354 239.743 200.92 240.004 201.643 240.004C202.36 240.004 202.927 239.74 203.342 239.213C203.757 238.686 203.964 237.965 203.964 237.052C203.964 236.149 203.755 235.431 203.335 234.899C202.92 234.367 202.356 234.101 201.643 234.101ZM210.551 234.079C209.921 234.079 209.403 234.291 208.998 234.716C208.593 235.141 208.366 235.702 208.317 236.4H212.667C212.653 235.702 212.453 235.141 212.067 234.716C211.681 234.291 211.176 234.079 210.551 234.079ZM212.631 238.957H213.891C213.7 239.64 213.312 240.175 212.726 240.561C212.145 240.946 211.425 241.139 210.565 241.139C209.472 241.139 208.605 240.773 207.965 240.041C207.326 239.303 207.006 238.31 207.006 237.06C207.006 235.814 207.328 234.821 207.973 234.079C208.617 233.336 209.481 232.965 210.565 232.965C211.63 232.965 212.467 233.319 213.078 234.027C213.688 234.735 213.993 235.705 213.993 236.935V237.418H208.317V237.477C208.351 238.258 208.571 238.878 208.976 239.337C209.386 239.796 209.926 240.026 210.595 240.026C211.615 240.026 212.294 239.669 212.631 238.957Z" fill="#233A59"/>
<rect opacity="0.1" x="117" y="252" width="47" height="20" rx="4" fill="#5B3FFF"/>
<path d="M127.834 265.051V266H122.701V257.545H123.756V265.051H127.834ZM131.379 260.463C130.875 260.463 130.461 260.633 130.137 260.973C129.813 261.312 129.631 261.762 129.592 262.32H133.072C133.061 261.762 132.901 261.312 132.592 260.973C132.283 260.633 131.879 260.463 131.379 260.463ZM133.043 264.365H134.051C133.899 264.912 133.588 265.34 133.119 265.648C132.654 265.957 132.078 266.111 131.391 266.111C130.516 266.111 129.822 265.818 129.311 265.232C128.799 264.643 128.543 263.848 128.543 262.848C128.543 261.852 128.801 261.057 129.317 260.463C129.832 259.869 130.524 259.572 131.391 259.572C132.242 259.572 132.912 259.855 133.401 260.422C133.889 260.988 134.133 261.764 134.133 262.748V263.135H129.592V263.182C129.619 263.807 129.795 264.303 130.119 264.67C130.447 265.037 130.879 265.221 131.414 265.221C132.231 265.221 132.774 264.936 133.043 264.365ZM134.807 259.684H135.885L137.614 264.887H137.707L139.436 259.684H140.514L138.176 266H137.145L134.807 259.684ZM143.907 260.463C143.403 260.463 142.989 260.633 142.665 260.973C142.34 261.312 142.159 261.762 142.12 262.32H145.6C145.589 261.762 145.428 261.312 145.12 260.973C144.811 260.633 144.407 260.463 143.907 260.463ZM145.571 264.365H146.579C146.426 264.912 146.116 265.34 145.647 265.648C145.182 265.957 144.606 266.111 143.919 266.111C143.044 266.111 142.35 265.818 141.839 265.232C141.327 264.643 141.071 263.848 141.071 262.848C141.071 261.852 141.329 261.057 141.844 260.463C142.36 259.869 143.051 259.572 143.919 259.572C144.77 259.572 145.44 259.855 145.928 260.422C146.417 260.988 146.661 261.764 146.661 262.748V263.135H142.12V263.182C142.147 263.807 142.323 264.303 142.647 264.67C142.975 265.037 143.407 265.221 143.942 265.221C144.758 265.221 145.301 264.936 145.571 264.365ZM148.061 266V257.176H149.069V266H148.061ZM155.949 266V258.717H155.855L153.704 260.275V259.162L155.954 257.545H157.003V266H155.949Z" fill="#5B3FFF"/>
<path d="M179.965 266V258.717H179.871L177.721 260.275V259.162L179.971 257.545H181.02V266H179.965ZM183.492 259.924C183.492 259.174 183.746 258.557 184.254 258.072C184.766 257.588 185.414 257.346 186.199 257.346C186.957 257.346 187.592 257.574 188.104 258.031C188.619 258.484 188.877 259.047 188.877 259.719C188.877 260.16 188.752 260.594 188.502 261.02C188.252 261.445 187.781 262.029 187.09 262.771L185.057 264.957V265.051H189.018V266H183.545V265.273L186.469 262.08C187.012 261.49 187.373 261.041 187.553 260.732C187.732 260.424 187.822 260.1 187.822 259.76C187.822 259.338 187.662 258.984 187.342 258.699C187.025 258.41 186.635 258.266 186.17 258.266C185.674 258.266 185.273 258.418 184.969 258.723C184.664 259.027 184.512 259.428 184.512 259.924V259.93H183.492V259.924ZM192.527 262.104V261.201H193.553C194.033 261.201 194.426 261.061 194.73 260.779C195.039 260.498 195.193 260.139 195.193 259.701C195.193 259.271 195.045 258.926 194.748 258.664C194.451 258.398 194.059 258.266 193.57 258.266C193.082 258.266 192.688 258.395 192.387 258.652C192.086 258.906 191.914 259.26 191.871 259.713H190.846C190.9 258.979 191.174 258.4 191.666 257.979C192.158 257.557 192.807 257.346 193.611 257.346C194.096 257.346 194.541 257.445 194.947 257.645C195.357 257.84 195.68 258.107 195.914 258.447C196.148 258.787 196.266 259.158 196.266 259.561C196.266 260.064 196.135 260.49 195.873 260.838C195.611 261.186 195.248 261.416 194.783 261.529V261.623C195.357 261.697 195.809 261.922 196.137 262.297C196.465 262.668 196.629 263.143 196.629 263.721C196.629 264.416 196.342 265.004 195.768 265.484C195.193 265.961 194.488 266.199 193.652 266.199C192.793 266.199 192.092 265.98 191.549 265.543C191.006 265.102 190.715 264.52 190.676 263.797H191.695C191.742 264.246 191.941 264.605 192.293 264.875C192.645 265.145 193.094 265.279 193.641 265.279C194.195 265.279 194.65 265.131 195.006 264.834C195.365 264.537 195.545 264.156 195.545 263.691C195.545 263.203 195.371 262.816 195.023 262.531C194.676 262.246 194.201 262.104 193.6 262.104H192.527ZM204.041 259.572C204.471 259.572 204.867 259.678 205.23 259.889C205.598 260.1 205.875 260.383 206.062 260.738H206.156V259.684H207.129V268.109H206.109V265.051H206.016C205.602 265.758 204.943 266.111 204.041 266.111C203.236 266.111 202.594 265.816 202.113 265.227C201.637 264.633 201.398 263.838 201.398 262.842C201.398 261.854 201.639 261.062 202.119 260.469C202.6 259.871 203.24 259.572 204.041 259.572ZM204.27 265.203C204.848 265.203 205.303 264.992 205.635 264.57C205.971 264.145 206.139 263.568 206.139 262.842C206.139 262.119 205.971 261.545 205.635 261.119C205.299 260.693 204.846 260.48 204.275 260.48C203.701 260.48 203.252 260.689 202.928 261.107C202.604 261.525 202.441 262.104 202.441 262.842C202.441 263.584 202.602 264.164 202.922 264.582C203.246 264.996 203.695 265.203 204.27 265.203ZM214.137 259.684V266H213.176V265.01H213.082C212.922 265.365 212.676 265.639 212.344 265.83C212.012 266.018 211.605 266.111 211.125 266.111C210.422 266.111 209.887 265.91 209.52 265.508C209.152 265.105 208.969 264.527 208.969 263.773V259.684H209.977V263.527C209.977 264.102 210.09 264.523 210.316 264.793C210.543 265.059 210.906 265.191 211.406 265.191C211.957 265.191 212.381 265.037 212.678 264.729C212.979 264.416 213.129 263.98 213.129 263.422V259.684H214.137ZM218.555 260.463C218.051 260.463 217.637 260.633 217.312 260.973C216.988 261.312 216.807 261.762 216.768 262.32H220.248C220.236 261.762 220.076 261.312 219.768 260.973C219.459 260.633 219.055 260.463 218.555 260.463ZM220.219 264.365H221.227C221.074 264.912 220.764 265.34 220.295 265.648C219.83 265.957 219.254 266.111 218.566 266.111C217.691 266.111 216.998 265.818 216.486 265.232C215.975 264.643 215.719 263.848 215.719 262.848C215.719 261.852 215.977 261.057 216.492 260.463C217.008 259.869 217.699 259.572 218.566 259.572C219.418 259.572 220.088 259.855 220.576 260.422C221.064 260.988 221.309 261.764 221.309 262.748V263.135H216.768V263.182C216.795 263.807 216.971 264.303 217.295 264.67C217.623 265.037 218.055 265.221 218.59 265.221C219.406 265.221 219.949 264.936 220.219 264.365ZM222.744 261.412C222.744 260.889 222.969 260.451 223.418 260.1C223.867 259.748 224.428 259.572 225.1 259.572C225.76 259.572 226.305 259.725 226.734 260.029C227.164 260.334 227.412 260.746 227.479 261.266H226.482C226.412 261.008 226.256 260.805 226.014 260.656C225.775 260.504 225.469 260.428 225.094 260.428C224.715 260.428 224.396 260.516 224.139 260.691C223.885 260.867 223.758 261.094 223.758 261.371C223.758 261.586 223.846 261.766 224.021 261.91C224.201 262.051 224.479 262.166 224.854 262.256L225.826 262.49C226.428 262.635 226.871 262.844 227.156 263.117C227.445 263.391 227.59 263.752 227.59 264.201C227.59 264.76 227.35 265.219 226.869 265.578C226.389 265.934 225.785 266.111 225.059 266.111C224.355 266.111 223.779 265.955 223.33 265.643C222.881 265.33 222.629 264.912 222.574 264.389H223.611C223.697 264.662 223.867 264.877 224.121 265.033C224.375 265.186 224.699 265.262 225.094 265.262C225.52 265.262 225.869 265.17 226.143 264.986C226.416 264.803 226.553 264.566 226.553 264.277C226.553 263.848 226.219 263.551 225.551 263.387L224.467 263.123C223.869 262.979 223.432 262.771 223.154 262.502C222.881 262.229 222.744 261.865 222.744 261.412ZM229.535 258.049H230.543V259.684H231.949V260.527H230.543V264.102C230.543 264.473 230.617 264.742 230.766 264.91C230.914 265.078 231.152 265.162 231.48 265.162C231.625 265.162 231.781 265.154 231.949 265.139V265.988C231.727 266.027 231.529 266.047 231.357 266.047C230.705 266.047 230.238 265.916 229.957 265.654C229.676 265.393 229.535 264.961 229.535 264.359V260.527H228.516V259.684H229.535V258.049ZM233.496 266V259.684H234.504V266H233.496ZM234.498 258.195C234.361 258.332 234.195 258.4 234 258.4C233.805 258.4 233.639 258.332 233.502 258.195C233.365 258.055 233.297 257.889 233.297 257.697C233.297 257.506 233.365 257.342 233.502 257.205C233.639 257.064 233.805 256.994 234 256.994C234.195 256.994 234.361 257.064 234.498 257.205C234.635 257.342 234.703 257.506 234.703 257.697C234.703 257.889 234.635 258.055 234.498 258.195ZM237.639 264.588C237.963 264.998 238.424 265.203 239.021 265.203C239.619 265.203 240.08 264.998 240.404 264.588C240.729 264.174 240.891 263.592 240.891 262.842C240.891 262.092 240.729 261.512 240.404 261.102C240.08 260.688 239.619 260.48 239.021 260.48C238.424 260.48 237.963 260.688 237.639 261.102C237.314 261.512 237.152 262.092 237.152 262.842C237.152 263.592 237.314 264.174 237.639 264.588ZM241.148 265.238C240.629 265.82 239.92 266.111 239.021 266.111C238.123 266.111 237.412 265.82 236.889 265.238C236.369 264.652 236.109 263.854 236.109 262.842C236.109 261.826 236.369 261.027 236.889 260.445C237.408 259.863 238.119 259.572 239.021 259.572C239.924 259.572 240.635 259.863 241.154 260.445C241.674 261.027 241.934 261.826 241.934 262.842C241.934 263.854 241.672 264.652 241.148 265.238ZM243.516 266V259.684H244.477V260.68H244.57C244.906 259.941 245.539 259.572 246.469 259.572C247.176 259.572 247.721 259.775 248.104 260.182C248.486 260.584 248.678 261.16 248.678 261.91V266H247.67V262.156C247.67 261.59 247.547 261.17 247.301 260.896C247.059 260.619 246.686 260.48 246.182 260.48C245.674 260.48 245.27 260.641 244.969 260.961C244.672 261.277 244.523 261.711 244.523 262.262V266H243.516ZM250.377 261.412C250.377 260.889 250.602 260.451 251.051 260.1C251.5 259.748 252.061 259.572 252.732 259.572C253.393 259.572 253.938 259.725 254.367 260.029C254.797 260.334 255.045 260.746 255.111 261.266H254.115C254.045 261.008 253.889 260.805 253.646 260.656C253.408 260.504 253.102 260.428 252.727 260.428C252.348 260.428 252.029 260.516 251.771 260.691C251.518 260.867 251.391 261.094 251.391 261.371C251.391 261.586 251.479 261.766 251.654 261.91C251.834 262.051 252.111 262.166 252.486 262.256L253.459 262.49C254.061 262.635 254.504 262.844 254.789 263.117C255.078 263.391 255.223 263.752 255.223 264.201C255.223 264.76 254.982 265.219 254.502 265.578C254.021 265.934 253.418 266.111 252.691 266.111C251.988 266.111 251.412 265.955 250.963 265.643C250.514 265.33 250.262 264.912 250.207 264.389H251.244C251.33 264.662 251.5 264.877 251.754 265.033C252.008 265.186 252.332 265.262 252.727 265.262C253.152 265.262 253.502 265.17 253.775 264.986C254.049 264.803 254.186 264.566 254.186 264.277C254.186 263.848 253.852 263.551 253.184 263.387L252.1 263.123C251.502 262.979 251.064 262.771 250.787 262.502C250.514 262.229 250.377 261.865 250.377 261.412Z" fill="#9FA8B2"/>
<rect x="-95" y="12" width="171" height="272" rx="10" fill="white"/>
<g filter="url(#filter1_d)">
<path d="M-95 22C-95 16.4772 -90.5228 12 -85 12H66C71.5228 12 76 16.4772 76 22V218H-95V22Z" fill="#2D9CDB"/>
</g>
<path d="M-16.0352 266V258.717H-16.1289L-18.2793 260.275V259.162L-16.0293 257.545H-14.9805V266H-16.0352ZM-12.5078 259.924C-12.5078 259.174 -12.2539 258.557 -11.7461 258.072C-11.2344 257.588 -10.5859 257.346 -9.80078 257.346C-9.04297 257.346 -8.4082 257.574 -7.89648 258.031C-7.38086 258.484 -7.12305 259.047 -7.12305 259.719C-7.12305 260.16 -7.24805 260.594 -7.49805 261.02C-7.74805 261.445 -8.21875 262.029 -8.91016 262.771L-10.9434 264.957V265.051H-6.98242V266H-12.4551V265.273L-9.53125 262.08C-8.98828 261.49 -8.62695 261.041 -8.44727 260.732C-8.26758 260.424 -8.17773 260.1 -8.17773 259.76C-8.17773 259.338 -8.33789 258.984 -8.6582 258.699C-8.97461 258.41 -9.36523 258.266 -9.83008 258.266C-10.3262 258.266 -10.7266 258.418 -11.0312 258.723C-11.3359 259.027 -11.4883 259.428 -11.4883 259.924V259.93H-12.5078V259.924ZM-3.47266 262.104V261.201H-2.44727C-1.9668 261.201 -1.57422 261.061 -1.26953 260.779C-0.960938 260.498 -0.806641 260.139 -0.806641 259.701C-0.806641 259.271 -0.955078 258.926 -1.25195 258.664C-1.54883 258.398 -1.94141 258.266 -2.42969 258.266C-2.91797 258.266 -3.3125 258.395 -3.61328 258.652C-3.91406 258.906 -4.08594 259.26 -4.12891 259.713H-5.1543C-5.09961 258.979 -4.82617 258.4 -4.33398 257.979C-3.8418 257.557 -3.19336 257.346 -2.38867 257.346C-1.9043 257.346 -1.45898 257.445 -1.05273 257.645C-0.642578 257.84 -0.320312 258.107 -0.0859375 258.447C0.148438 258.787 0.265625 259.158 0.265625 259.561C0.265625 260.064 0.134766 260.49 -0.126953 260.838C-0.388672 261.186 -0.751953 261.416 -1.2168 261.529V261.623C-0.642578 261.697 -0.191406 261.922 0.136719 262.297C0.464844 262.668 0.628906 263.143 0.628906 263.721C0.628906 264.416 0.341797 265.004 -0.232422 265.484C-0.806641 265.961 -1.51172 266.199 -2.34766 266.199C-3.20703 266.199 -3.9082 265.98 -4.45117 265.543C-4.99414 265.102 -5.28516 264.52 -5.32422 263.797H-4.30469C-4.25781 264.246 -4.05859 264.605 -3.70703 264.875C-3.35547 265.145 -2.90625 265.279 -2.35938 265.279C-1.80469 265.279 -1.34961 265.131 -0.994141 264.834C-0.634766 264.537 -0.455078 264.156 -0.455078 263.691C-0.455078 263.203 -0.628906 262.816 -0.976562 262.531C-1.32422 262.246 -1.79883 262.104 -2.40039 262.104H-3.47266ZM8.04102 259.572C8.4707 259.572 8.86719 259.678 9.23047 259.889C9.59766 260.1 9.875 260.383 10.0625 260.738H10.1562V259.684H11.1289V268.109H10.1094V265.051H10.0156C9.60156 265.758 8.94336 266.111 8.04102 266.111C7.23633 266.111 6.59375 265.816 6.11328 265.227C5.63672 264.633 5.39844 263.838 5.39844 262.842C5.39844 261.854 5.63867 261.062 6.11914 260.469C6.59961 259.871 7.24023 259.572 8.04102 259.572ZM8.26953 265.203C8.84766 265.203 9.30273 264.992 9.63477 264.57C9.9707 264.145 10.1387 263.568 10.1387 262.842C10.1387 262.119 9.9707 261.545 9.63477 261.119C9.29883 260.693 8.8457 260.48 8.27539 260.48C7.70117 260.48 7.25195 260.689 6.92773 261.107C6.60352 261.525 6.44141 262.104 6.44141 262.842C6.44141 263.584 6.60156 264.164 6.92188 264.582C7.24609 264.996 7.69531 265.203 8.26953 265.203ZM18.1367 259.684V266H17.1758V265.01H17.082C16.9219 265.365 16.6758 265.639 16.3438 265.83C16.0117 266.018 15.6055 266.111 15.125 266.111C14.4219 266.111 13.8867 265.91 13.5195 265.508C13.1523 265.105 12.9688 264.527 12.9688 263.773V259.684H13.9766V263.527C13.9766 264.102 14.0898 264.523 14.3164 264.793C14.543 265.059 14.9062 265.191 15.4062 265.191C15.957 265.191 16.3809 265.037 16.6777 264.729C16.9785 264.416 17.1289 263.98 17.1289 263.422V259.684H18.1367ZM22.5547 260.463C22.0508 260.463 21.6367 260.633 21.3125 260.973C20.9883 261.312 20.8066 261.762 20.7676 262.32H24.248C24.2363 261.762 24.0762 261.312 23.7676 260.973C23.459 260.633 23.0547 260.463 22.5547 260.463ZM24.2188 264.365H25.2266C25.0742 264.912 24.7637 265.34 24.2949 265.648C23.8301 265.957 23.2539 266.111 22.5664 266.111C21.6914 266.111 20.998 265.818 20.4863 265.232C19.9746 264.643 19.7188 263.848 19.7188 262.848C19.7188 261.852 19.9766 261.057 20.4922 260.463C21.0078 259.869 21.6992 259.572 22.5664 259.572C23.418 259.572 24.0879 259.855 24.5762 260.422C25.0645 260.988 25.3086 261.764 25.3086 262.748V263.135H20.7676V263.182C20.7949 263.807 20.9707 264.303 21.2949 264.67C21.623 265.037 22.0547 265.221 22.5898 265.221C23.4062 265.221 23.9492 264.936 24.2188 264.365ZM26.7441 261.412C26.7441 260.889 26.9688 260.451 27.418 260.1C27.8672 259.748 28.4277 259.572 29.0996 259.572C29.7598 259.572 30.3047 259.725 30.7344 260.029C31.1641 260.334 31.4121 260.746 31.4785 261.266H30.4824C30.4121 261.008 30.2559 260.805 30.0137 260.656C29.7754 260.504 29.4688 260.428 29.0938 260.428C28.7148 260.428 28.3965 260.516 28.1387 260.691C27.8848 260.867 27.7578 261.094 27.7578 261.371C27.7578 261.586 27.8457 261.766 28.0215 261.91C28.2012 262.051 28.4785 262.166 28.8535 262.256L29.8262 262.49C30.4277 262.635 30.8711 262.844 31.1562 263.117C31.4453 263.391 31.5898 263.752 31.5898 264.201C31.5898 264.76 31.3496 265.219 30.8691 265.578C30.3887 265.934 29.7852 266.111 29.0586 266.111C28.3555 266.111 27.7793 265.955 27.3301 265.643C26.8809 265.33 26.6289 264.912 26.5742 264.389H27.6113C27.6973 264.662 27.8672 264.877 28.1211 265.033C28.375 265.186 28.6992 265.262 29.0938 265.262C29.5195 265.262 29.8691 265.17 30.1426 264.986C30.416 264.803 30.5527 264.566 30.5527 264.277C30.5527 263.848 30.2188 263.551 29.5508 263.387L28.4668 263.123C27.8691 262.979 27.4316 262.771 27.1543 262.502C26.8809 262.229 26.7441 261.865 26.7441 261.412ZM33.5352 258.049H34.543V259.684H35.9492V260.527H34.543V264.102C34.543 264.473 34.6172 264.742 34.7656 264.91C34.9141 265.078 35.1523 265.162 35.4805 265.162C35.625 265.162 35.7812 265.154 35.9492 265.139V265.988C35.7266 266.027 35.5293 266.047 35.3574 266.047C34.7051 266.047 34.2383 265.916 33.957 265.654C33.6758 265.393 33.5352 264.961 33.5352 264.359V260.527H32.5156V259.684H33.5352V258.049ZM37.4961 266V259.684H38.5039V266H37.4961ZM38.498 258.195C38.3613 258.332 38.1953 258.4 38 258.4C37.8047 258.4 37.6387 258.332 37.502 258.195C37.3652 258.055 37.2969 257.889 37.2969 257.697C37.2969 257.506 37.3652 257.342 37.502 257.205C37.6387 257.064 37.8047 256.994 38 256.994C38.1953 256.994 38.3613 257.064 38.498 257.205C38.6348 257.342 38.7031 257.506 38.7031 257.697C38.7031 257.889 38.6348 258.055 38.498 258.195ZM41.6387 264.588C41.9629 264.998 42.4238 265.203 43.0215 265.203C43.6191 265.203 44.0801 264.998 44.4043 264.588C44.7285 264.174 44.8906 263.592 44.8906 262.842C44.8906 262.092 44.7285 261.512 44.4043 261.102C44.0801 260.688 43.6191 260.48 43.0215 260.48C42.4238 260.48 41.9629 260.688 41.6387 261.102C41.3145 261.512 41.1523 262.092 41.1523 262.842C41.1523 263.592 41.3145 264.174 41.6387 264.588ZM45.1484 265.238C44.6289 265.82 43.9199 266.111 43.0215 266.111C42.123 266.111 41.4121 265.82 40.8887 265.238C40.3691 264.652 40.1094 263.854 40.1094 262.842C40.1094 261.826 40.3691 261.027 40.8887 260.445C41.4082 259.863 42.1191 259.572 43.0215 259.572C43.9238 259.572 44.6348 259.863 45.1543 260.445C45.6738 261.027 45.9336 261.826 45.9336 262.842C45.9336 263.854 45.6719 264.652 45.1484 265.238ZM47.5156 266V259.684H48.4766V260.68H48.5703C48.9062 259.941 49.5391 259.572 50.4688 259.572C51.1758 259.572 51.7207 259.775 52.1035 260.182C52.4863 260.584 52.6777 261.16 52.6777 261.91V266H51.6699V262.156C51.6699 261.59 51.5469 261.17 51.3008 260.896C51.0586 260.619 50.6855 260.48 50.1816 260.48C49.6738 260.48 49.2695 260.641 48.9688 260.961C48.6719 261.277 48.5234 261.711 48.5234 262.262V266H47.5156ZM54.377 261.412C54.377 260.889 54.6016 260.451 55.0508 260.1C55.5 259.748 56.0605 259.572 56.7324 259.572C57.3926 259.572 57.9375 259.725 58.3672 260.029C58.7969 260.334 59.0449 260.746 59.1113 261.266H58.1152C58.0449 261.008 57.8887 260.805 57.6465 260.656C57.4082 260.504 57.1016 260.428 56.7266 260.428C56.3477 260.428 56.0293 260.516 55.7715 260.691C55.5176 260.867 55.3906 261.094 55.3906 261.371C55.3906 261.586 55.4785 261.766 55.6543 261.91C55.834 262.051 56.1113 262.166 56.4863 262.256L57.459 262.49C58.0605 262.635 58.5039 262.844 58.7891 263.117C59.0781 263.391 59.2227 263.752 59.2227 264.201C59.2227 264.76 58.9824 265.219 58.502 265.578C58.0215 265.934 57.418 266.111 56.6914 266.111C55.9883 266.111 55.4121 265.955 54.9629 265.643C54.5137 265.33 54.2617 264.912 54.207 264.389H55.2441C55.3301 264.662 55.5 264.877 55.7539 265.033C56.0078 265.186 56.332 265.262 56.7266 265.262C57.1523 265.262 57.502 265.17 57.7754 264.986C58.0488 264.803 58.1855 264.566 58.1855 264.277C58.1855 263.848 57.8516 263.551 57.1836 263.387L56.0996 263.123C55.502 262.979 55.0645 262.771 54.7871 262.502C54.5137 262.229 54.377 261.865 54.377 261.412Z" fill="#9FA8B2"/>
<path d="M17.4773 118.795H-10.4838C-14.7387 118.795 -18.9137 117.64 -22.5641 115.454C-26.2145 113.269 -29.2035 110.133 -31.2127 106.383C-33.2219 102.632 -34.176 98.4069 -33.9733 94.1569C-33.7706 89.907 -32.4188 85.7916 -30.0619 82.2492C-29.7972 81.8517 -29.4381 81.526 -29.0167 81.3011C-28.5954 81.0763 -28.1249 80.9593 -27.6473 80.9607H34.6473C35.1248 80.9597 35.5952 81.0768 36.0165 81.3016C36.4377 81.5265 36.7969 81.852 37.0619 82.2492C39.4188 85.7916 40.7706 89.907 40.9733 94.1569C41.176 98.4069 40.2219 102.632 38.2127 106.383C36.2035 110.133 33.2145 113.269 29.5641 115.454C25.9137 117.64 21.7387 118.795 17.4838 118.795H17.4773ZM-26.0317 86.747C-27.5141 89.4479 -28.2674 92.4884 -28.2174 95.5689C-28.1675 98.6495 -27.3161 101.664 -25.747 104.315C-24.1779 106.967 -21.9452 109.164 -19.2689 110.69C-16.5926 112.217 -13.5648 113.02 -10.4838 113.02H17.4773C20.5582 113.02 23.586 112.217 26.2623 110.69C28.9386 109.164 31.1713 106.967 32.7404 104.315C34.3095 101.664 35.1609 98.6495 35.2108 95.5689C35.2608 92.4884 34.5075 89.4479 33.0251 86.747H-26.0317Z" fill="#FDBC4B"/>
<path d="M10.7559 134.317H-3.79102C-3.10102 132.723 -2.74502 131.005 -2.74502 129.268C-2.74502 127.531 -3.10102 125.813 -3.79102 124.219H10.7559C10.0673 125.813 9.71205 127.531 9.71205 129.268C9.71205 131.004 10.0673 132.722 10.7559 134.317Z" fill="#FFCC5B"/>
<path d="M16.6299 134.321H-9.6454C-10.025 134.321 -10.4009 134.396 -10.7517 134.541C-11.1024 134.686 -11.4212 134.899 -11.6896 135.168C-11.9581 135.436 -12.171 135.755 -12.3163 136.106C-12.4616 136.456 -12.5363 136.832 -12.5363 137.212V139.455H19.5252V137.212C19.5252 136.832 19.4503 136.456 19.3047 136.105C19.1592 135.754 18.9458 135.435 18.6769 135.166C18.408 134.898 18.0888 134.685 17.7375 134.54C17.3863 134.395 17.0099 134.321 16.6299 134.321Z" fill="#FDBC4B"/>
<path d="M23.5467 139.455H-16.5599C-16.9395 139.455 -17.3154 139.53 -17.6662 139.675C-18.0169 139.821 -18.3357 140.034 -18.6041 140.302C-18.8725 140.571 -19.0855 140.889 -19.2307 141.24C-19.376 141.591 -19.4508 141.967 -19.4508 142.346V157.071H26.4376V142.346C26.4379 141.967 26.3633 141.59 26.2182 141.24C26.073 140.889 25.86 140.57 25.5915 140.301C25.323 140.033 25.0042 139.82 24.6534 139.675C24.3025 139.53 23.9264 139.455 23.5467 139.455Z" fill="#6F7070"/>
<path d="M28.0049 157.069H-21.0182C-21.6719 157.069 -22.2989 157.329 -22.7612 157.791C-23.2235 158.253 -23.4832 158.88 -23.4832 159.534C-23.4832 160.188 -23.2235 160.815 -22.7612 161.277C-22.2989 161.739 -21.6719 161.999 -21.0182 161.999H28.0027C28.6565 161.999 29.2835 161.739 29.7458 161.277C30.2081 160.815 30.4678 160.188 30.4678 159.534C30.4678 158.881 30.2084 158.254 29.7466 157.792C29.2847 157.329 28.6583 157.07 28.0049 157.069Z" fill="#636464"/>
<path d="M13.0958 121.278H-6.09806C-15.717 104.303 -21.4637 92.3816 -22.7413 75.4003H29.7368C28.4637 92.3816 22.7126 104.301 13.0958 121.278Z" fill="#FFCC5B"/>
<path d="M30.1759 69.8073H-23.1847C-23.5523 69.807 -23.9163 69.8792 -24.256 70.0197C-24.5957 70.1603 -24.9044 70.3664 -25.1643 70.6263C-25.4243 70.8863 -25.6304 71.1949 -25.7709 71.5346C-25.9115 71.8743 -25.9837 72.2384 -25.9834 72.606C-25.9837 72.9736 -25.9115 73.3377 -25.7709 73.6774C-25.6304 74.0171 -25.4243 74.3257 -25.1643 74.5857C-24.9044 74.8456 -24.5957 75.0517 -24.256 75.1923C-23.9163 75.3328 -23.5523 75.405 -23.1847 75.4047H30.1759C30.5435 75.405 30.9076 75.3328 31.2473 75.1923C31.587 75.0517 31.8956 74.8456 32.1556 74.5857C32.4155 74.3257 32.6216 74.0171 32.7622 73.6774C32.9027 73.3377 32.9749 72.9736 32.9746 72.606C32.9746 71.8637 32.6798 71.1519 32.1549 70.627C31.63 70.1021 30.9182 69.8073 30.1759 69.8073Z" fill="#FDBC4B"/>
<path d="M13.0564 121.278H-6.0695C-6.84991 121.278 -7.59835 121.588 -8.15018 122.14C-8.70201 122.691 -9.01202 123.44 -9.01202 124.22C-9.01202 125.001 -8.70201 125.749 -8.15018 126.301C-7.59835 126.853 -6.84991 127.163 -6.0695 127.163H13.0564C13.8368 127.163 14.5852 126.853 15.137 126.301C15.6889 125.749 15.9989 125.001 15.9989 124.22C15.9989 123.44 15.6889 122.691 15.137 122.14C14.5852 121.588 13.8368 121.278 13.0564 121.278Z" fill="#FDBC4B"/>
<path d="M5.6347 117.849C5.63065 116.941 5.26812 116.071 4.62598 115.429C3.98384 114.787 3.11406 114.424 2.20595 114.42H-3.26861C-3.64906 114.423 -4.02631 114.35 -4.37838 114.206C-4.73044 114.062 -5.05029 113.849 -5.31932 113.58C-5.58835 113.311 -5.80119 112.991 -5.94543 112.639C-6.08968 112.287 -6.16247 111.91 -6.15955 111.529V111.261C-6.18015 110.891 -6.12496 110.52 -5.99737 110.172C-5.86978 109.823 -5.67245 109.505 -5.41748 109.235C-5.1625 108.966 -4.85523 108.751 -4.51443 108.604C-4.17364 108.457 -3.80649 108.382 -3.43544 108.382H8.02515C8.92917 108.402 9.80772 108.081 10.4861 107.483C11.1645 106.885 11.5931 106.054 11.6866 105.155C11.7073 104.687 11.6332 104.219 11.4687 103.78C11.3042 103.342 11.0528 102.941 10.7294 102.602C10.4061 102.263 10.0176 101.992 9.58721 101.807C9.15682 101.622 8.69345 101.526 8.22491 101.524H-2.12497C-2.88992 101.518 -3.62191 101.212 -4.16282 100.671C-4.70374 100.13 -5.01017 99.3981 -5.01591 98.6331L-4.98078 98.4312V98.4004C-4.98572 98.0001 -4.91104 97.6028 -4.76105 97.2316C-4.61106 96.8604 -4.38877 96.5227 -4.10711 96.2382C-3.82544 95.9536 -3.49002 95.7279 -3.12034 95.5742C-2.75067 95.4205 -2.35411 95.3418 -1.95375 95.3427H12.1958C13.1058 95.3604 13.9888 95.0329 14.6673 94.4262C15.3457 93.8194 15.7693 92.9783 15.8529 92.072C15.8736 91.604 15.7995 91.1367 15.635 90.6981C15.4705 90.2595 15.219 89.8586 14.8956 89.5197C14.5723 89.1808 14.1837 88.9107 13.7533 88.7258C13.323 88.5408 12.8596 88.4448 12.3912 88.4435H-2.58594C-2.97839 88.4386 -3.36584 88.3549 -3.72532 88.1974C-4.0848 88.0398 -4.40899 87.8117 -4.67862 87.5265C-4.94826 87.2413 -5.15785 86.9049 -5.29497 86.5371C-5.4321 86.1694 -5.49396 85.7778 -5.47688 85.3857V85.3155C-5.49094 84.9242 -5.42698 84.5341 -5.28872 84.1678C-5.15047 83.8015 -4.9407 83.4664 -4.67162 83.182C-4.40255 82.8976 -4.07955 82.6696 -3.72147 82.5113C-3.36339 82.353 -2.97738 82.2675 -2.58594 82.2599H6.11762C7.01429 82.2778 7.88431 81.9546 8.55178 81.3556C9.21925 80.7566 9.63436 79.9265 9.71318 79.0331C9.74074 78.5662 9.67244 78.0985 9.5125 77.6589C9.35257 77.2193 9.10439 76.8171 8.78321 76.477C8.46204 76.1369 8.07468 75.8661 7.64495 75.6813C7.21522 75.4965 6.75222 75.4016 6.28444 75.4024H-22.7347C-21.4638 92.3771 -15.7104 104.299 -6.0937 121.28H2.31791C3.2105 121.258 4.05868 120.886 4.67927 120.244C5.29985 119.602 5.64303 118.742 5.6347 117.849Z" fill="#FFDB70"/>
<path d="M-1.8659 155.343C-1.85464 155.093 -1.89413 154.843 -1.98199 154.609C-2.06985 154.374 -2.20425 154.16 -2.37712 153.978C-2.55 153.797 -2.75778 153.653 -2.98793 153.554C-3.21808 153.455 -3.46584 153.404 -3.71633 153.403H-9.2458C-9.65191 153.398 -10.0401 153.235 -10.3273 152.948C-10.6145 152.661 -10.7778 152.272 -10.7824 151.866L-10.7648 151.759V151.741C-10.7677 151.528 -10.728 151.315 -10.6481 151.117C-10.5681 150.919 -10.4495 150.738 -10.2992 150.586C-10.1488 150.434 -9.96967 150.314 -9.77224 150.232C-9.5748 150.149 -9.36302 150.108 -9.14921 150.108H-1.59151C-1.10573 150.118 -0.634142 149.944 -0.271393 149.621C0.0913563 149.297 0.318449 148.849 0.364332 148.365C0.375586 148.115 0.336102 147.865 0.248241 147.63C0.160381 147.396 0.0259476 147.182 -0.146927 147C-0.319803 146.819 -0.527548 146.674 -0.7577 146.576C-0.98785 146.477 -1.23564 146.425 -1.48614 146.425H-9.49604C-9.70501 146.421 -9.91113 146.376 -10.1023 146.291C-10.2934 146.207 -10.4656 146.085 -10.6089 145.932C-10.7521 145.78 -10.8634 145.601 -10.9361 145.405C-11.0089 145.209 -11.0417 145 -11.0326 144.792V144.756C-11.0402 144.548 -11.0064 144.34 -10.9331 144.145C-10.8597 143.95 -10.7484 143.771 -10.6054 143.619C-10.4625 143.467 -10.2909 143.345 -10.1004 143.26C-9.90998 143.175 -9.70456 143.128 -9.49604 143.123H-4.84463C-4.36534 143.134 -3.90009 142.961 -3.54307 142.641C-3.18604 142.321 -2.96392 141.878 -2.92171 141.4C-2.90671 141.151 -2.94306 140.9 -3.02846 140.665C-3.11386 140.43 -3.24652 140.215 -3.41827 140.033C-3.59002 139.851 -3.79722 139.707 -4.02706 139.608C-4.2569 139.509 -4.50451 139.459 -4.75463 139.46H-16.5554C-17.3222 139.46 -18.0575 139.764 -18.5996 140.306C-19.1418 140.849 -19.4464 141.584 -19.4464 142.351V157.075H-3.81732C-3.33428 157.083 -2.86579 156.91 -2.50447 156.589C-2.14315 156.269 -1.91529 155.824 -1.8659 155.343Z" fill="#787878"/>
<path opacity="0.1" d="M29.5832 76.7855C29.6271 76.3179 29.7017 75.8811 29.7369 75.4069H-22.7434C-22.7083 75.8811 -22.6337 76.3179 -22.5898 76.7855H29.5832Z" fill="#010101"/>
<rect x="299" y="12" width="171" height="272" rx="10" fill="white"/>
<g filter="url(#filter2_d)">
<path d="M299 22C299 16.4772 303.477 12 309 12H460C465.523 12 470 16.4772 470 22V218H299V22Z" fill="#FFE26B"/>
</g>
<path d="M422.685 78H323.313C322.436 78 321.595 78.3479 320.973 78.9674C320.352 79.5869 320.002 80.4274 320 81.3046V145.442C320 146.321 320.349 147.164 320.97 147.785C321.592 148.406 322.434 148.755 323.313 148.755H422.687C423.566 148.755 424.408 148.406 425.03 147.785C425.651 147.164 426 146.321 426 145.442V81.3046C425.998 80.4268 425.648 79.5857 425.026 78.966C424.405 78.3463 423.562 77.9989 422.685 78Z" fill="#EBCEB8"/>
<path d="M329.5 139.555C324.029 136.326 330.799 132.459 330.799 126.103C330.799 119.747 329.084 119.747 329.084 113.39C329.084 107.034 330.799 107.023 330.799 100.659C330.799 94.2937 324.023 90.4298 329.5 87.1873C338.756 81.7075 340.693 88.7903 351.447 88.7903C362.201 88.7903 362.212 87.0759 372.974 87.0759C383.737 87.0759 383.745 88.7903 394.518 88.7903C405.292 88.7903 407.222 81.7182 416.5 87.1873C421.971 90.4169 415.201 94.283 415.201 100.639C415.201 106.996 416.916 106.996 416.916 113.352C416.916 119.708 415.201 119.719 415.201 126.084C415.201 132.449 421.977 136.317 416.5 139.559C407.244 145.039 405.307 137.956 394.553 137.956C383.799 137.956 383.788 139.671 373.026 139.671C362.263 139.671 361.927 136.04 351.329 137.956C340.095 140.003 338.777 145.028 329.5 139.555Z" fill="#FDF2E5"/>
<path d="M354.433 133.548H337.762C337.322 133.548 336.901 133.374 336.59 133.063C336.28 132.752 336.105 132.331 336.105 131.892C336.105 131.452 336.28 131.031 336.59 130.72C336.901 130.41 337.322 130.235 337.762 130.235H354.433C354.872 130.235 355.293 130.41 355.604 130.72C355.915 131.031 356.089 131.452 356.089 131.892C356.089 132.331 355.915 132.752 355.604 133.063C355.293 133.374 354.872 133.548 354.433 133.548Z" fill="#84CA9B"/>
<path d="M408.236 121.331H337.762C337.322 121.331 336.901 121.156 336.59 120.845C336.28 120.535 336.105 120.113 336.105 119.674C336.105 119.235 336.28 118.813 336.59 118.503C336.901 118.192 337.322 118.018 337.762 118.018H408.236C408.676 118.018 409.097 118.192 409.408 118.503C409.718 118.813 409.893 119.235 409.893 119.674C409.893 120.113 409.718 120.535 409.408 120.845C409.097 121.156 408.676 121.331 408.236 121.331Z" fill="#84CA9B"/>
<path d="M408.236 109.12H337.762C337.322 109.12 336.901 108.945 336.59 108.634C336.28 108.324 336.105 107.902 336.105 107.463C336.105 107.024 336.28 106.602 336.59 106.292C336.901 105.981 337.322 105.806 337.762 105.806H408.236C408.676 105.806 409.097 105.981 409.408 106.292C409.718 106.602 409.893 107.024 409.893 107.463C409.893 107.902 409.718 108.324 409.408 108.634C409.097 108.945 408.676 109.12 408.236 109.12Z" fill="#84CA9B"/>
<path d="M394.094 96.902H351.912C351.473 96.902 351.052 96.7274 350.741 96.4168C350.43 96.1061 350.256 95.6847 350.256 95.2454C350.256 94.806 350.43 94.3847 350.741 94.074C351.052 93.7633 351.473 93.5888 351.912 93.5888H394.094C394.534 93.5888 394.955 93.7633 395.266 94.074C395.576 94.3847 395.751 94.806 395.751 95.2454C395.751 95.6847 395.576 96.1061 395.266 96.4168C394.955 96.7274 394.534 96.902 394.094 96.902Z" fill="#84CA9B"/>
<path d="M393.957 147.041L390.247 151.661L391.152 157.52L385.623 159.663L383.48 165.192L377.623 164.288L372.998 167.998L368.373 164.288L362.516 165.188L360.373 159.663L354.844 157.52L355.748 151.661L352.039 147.041L355.748 142.416L354.844 136.557L360.373 134.414L362.516 128.885L368.373 129.785L372.998 126.077L377.623 129.785L383.48 128.885L385.623 134.414L391.152 136.557L390.247 142.416L393.957 147.041Z" fill="#ED6362"/>
<path d="M376.191 144.907H362.773C362.332 144.903 361.909 144.726 361.597 144.414C361.284 144.101 361.107 143.679 361.104 143.237L361.123 143.121V143.102C361.12 142.871 361.163 142.641 361.249 142.427C361.336 142.213 361.464 142.018 361.627 141.853C361.789 141.689 361.983 141.559 362.196 141.47C362.41 141.381 362.639 141.336 362.87 141.336H372.657C373.182 141.348 373.692 141.16 374.084 140.811C374.476 140.462 374.721 139.977 374.77 139.455C374.782 139.184 374.74 138.915 374.645 138.662C374.55 138.408 374.405 138.177 374.218 137.981C374.032 137.786 373.807 137.63 373.559 137.523C373.311 137.417 373.043 137.361 372.773 137.361H362.497C362.27 137.358 362.046 137.31 361.839 137.219C361.631 137.128 361.444 136.996 361.288 136.832C361.132 136.667 361.011 136.473 360.932 136.26C360.853 136.048 360.817 135.821 360.827 135.595V135.554C360.821 135.328 360.858 135.104 360.939 134.893C361.019 134.682 361.14 134.488 361.295 134.324C361.45 134.16 361.636 134.028 361.843 133.936C362.049 133.844 362.271 133.794 362.497 133.788H371.082C371.6 133.799 372.102 133.613 372.488 133.267C372.873 132.921 373.113 132.442 373.159 131.926C373.174 131.657 373.135 131.387 373.043 131.133C372.95 130.88 372.807 130.647 372.622 130.451C372.437 130.255 372.213 130.099 371.965 129.992C371.717 129.885 371.45 129.83 371.181 129.83H362.147L360.373 134.414L354.844 136.557L355.748 142.416L352.039 147.041L355.748 151.666L354.844 157.525L360.373 159.668L362.147 164.252H372.503C373.023 164.266 373.53 164.081 373.919 163.735C374.309 163.39 374.551 162.908 374.599 162.39C374.613 162.12 374.572 161.851 374.48 161.598C374.387 161.345 374.243 161.114 374.058 160.918C373.874 160.722 373.651 160.566 373.404 160.458C373.156 160.351 372.89 160.295 372.621 160.294H363.976C363.705 160.295 363.436 160.241 363.187 160.135C362.938 160.029 362.713 159.873 362.526 159.677C362.339 159.481 362.194 159.249 362.1 158.995C362.006 158.741 361.964 158.47 361.978 158.2C362.027 157.68 362.27 157.198 362.658 156.849C363.047 156.501 363.552 156.311 364.074 156.318H372.331C372.848 156.309 373.341 156.096 373.702 155.725C374.063 155.355 374.264 154.857 374.26 154.34C374.258 153.816 374.049 153.314 373.679 152.943C373.308 152.573 372.806 152.364 372.282 152.362H362.122C361.902 152.364 361.684 152.322 361.481 152.239C361.278 152.155 361.093 152.032 360.938 151.877C360.782 151.722 360.659 151.537 360.576 151.334C360.493 151.13 360.451 150.913 360.452 150.693V150.536C360.439 150.322 360.471 150.107 360.544 149.906C360.617 149.704 360.73 149.519 360.878 149.363C361.025 149.206 361.202 149.082 361.399 148.996C361.596 148.911 361.809 148.867 362.023 148.867H376.082C376.603 148.879 377.111 148.694 377.502 148.349C377.894 148.004 378.141 147.524 378.195 147.005C378.206 146.734 378.163 146.464 378.068 146.21C377.972 145.957 377.827 145.725 377.639 145.529C377.452 145.333 377.228 145.177 376.979 145.07C376.73 144.963 376.462 144.907 376.191 144.907Z" fill="#EF6F6F"/>
<path d="M373.008 160.313C370.384 160.313 367.818 159.535 365.636 158.076C363.454 156.618 361.753 154.546 360.749 152.121C359.744 149.696 359.482 147.028 359.994 144.454C360.506 141.88 361.769 139.516 363.625 137.66C365.481 135.804 367.846 134.54 370.42 134.028C372.994 133.516 375.662 133.779 378.087 134.783C380.511 135.788 382.584 137.488 384.042 139.671C385.5 141.853 386.278 144.418 386.278 147.043C386.274 150.561 384.874 153.934 382.387 156.421C379.899 158.909 376.526 160.308 373.008 160.313Z" fill="#FFCC5B"/>
<path d="M370.739 135.207C370.728 135.414 370.759 135.621 370.831 135.816C370.902 136.011 371.013 136.189 371.155 136.34C371.298 136.491 371.469 136.612 371.66 136.694C371.85 136.777 372.055 136.82 372.263 136.821H378.921C379.13 136.82 379.337 136.862 379.529 136.944C379.721 137.026 379.894 137.146 380.038 137.297C380.182 137.448 380.294 137.626 380.367 137.822C380.44 138.017 380.472 138.226 380.462 138.434C380.424 138.835 380.238 139.206 379.939 139.475C379.64 139.744 379.25 139.89 378.848 139.885H372.488C372.09 139.894 371.712 140.059 371.435 140.344C371.158 140.629 371.005 141.011 371.007 141.409C371.009 141.812 371.17 142.199 371.455 142.484C371.74 142.77 372.127 142.931 372.531 142.933H380.355C380.524 142.931 380.692 142.963 380.849 143.027C381.006 143.091 381.148 143.186 381.268 143.305C381.388 143.425 381.482 143.568 381.546 143.724C381.61 143.881 381.642 144.049 381.641 144.218V144.338C381.651 144.503 381.627 144.669 381.571 144.824C381.515 144.98 381.428 145.122 381.314 145.243C381.201 145.363 381.065 145.459 380.913 145.525C380.761 145.59 380.597 145.624 380.432 145.624H369.603C369.201 145.615 368.811 145.757 368.509 146.023C368.207 146.289 368.016 146.658 367.974 147.058C367.965 147.266 367.998 147.474 368.071 147.669C368.145 147.865 368.257 148.043 368.401 148.194C368.545 148.344 368.717 148.464 368.909 148.547C369.101 148.629 369.307 148.671 369.515 148.672H379.849C380.19 148.672 380.517 148.807 380.758 149.048C381 149.289 381.135 149.617 381.135 149.958L381.118 150.048V150.06C381.12 150.239 381.087 150.415 381.021 150.581C380.954 150.746 380.856 150.896 380.73 151.023C380.605 151.15 380.456 151.25 380.291 151.319C380.127 151.387 379.95 151.422 379.772 151.421H372.231C371.826 151.413 371.433 151.558 371.131 151.827C370.829 152.096 370.64 152.469 370.602 152.872C370.593 153.08 370.626 153.288 370.699 153.483C370.772 153.679 370.884 153.857 371.028 154.008C371.172 154.159 371.345 154.279 371.536 154.361C371.728 154.443 371.934 154.485 372.143 154.486H380.057C380.232 154.488 380.404 154.525 380.564 154.595C380.724 154.665 380.868 154.767 380.988 154.894C381.108 155.021 381.201 155.171 381.262 155.334C381.323 155.498 381.351 155.672 381.343 155.847V155.879C381.349 156.053 381.321 156.227 381.26 156.39C381.198 156.553 381.105 156.702 380.985 156.828C380.866 156.955 380.722 157.056 380.562 157.126C380.403 157.197 380.231 157.235 380.057 157.238H373.441C373.043 157.229 372.656 157.373 372.359 157.639C372.061 157.905 371.876 158.274 371.841 158.671C371.828 158.879 371.858 159.087 371.929 159.282C372 159.478 372.11 159.657 372.253 159.808C372.396 159.959 372.568 160.08 372.759 160.162C372.95 160.244 373.156 160.286 373.364 160.285H373.534C377.002 160.145 380.277 158.652 382.657 156.124C385.036 153.597 386.329 150.237 386.259 146.766C386.189 143.296 384.761 139.991 382.282 137.562C379.802 135.133 376.469 133.772 372.998 133.773C372.693 133.773 372.396 133.799 372.098 133.82C371.747 133.861 371.42 134.02 371.173 134.273C370.925 134.525 370.772 134.855 370.739 135.207Z" fill="#FDBC4B"/>
<path d="M370.591 152.806C370.127 152.805 369.681 152.62 369.353 152.291L366.138 149.077C365.975 148.914 365.847 148.721 365.759 148.509C365.671 148.297 365.625 148.069 365.625 147.839C365.625 147.609 365.671 147.382 365.759 147.169C365.847 146.957 365.975 146.764 366.138 146.602C366.301 146.439 366.493 146.31 366.706 146.222C366.918 146.134 367.146 146.089 367.376 146.089C367.605 146.089 367.833 146.134 368.045 146.222C368.258 146.31 368.451 146.439 368.613 146.602L370.585 148.573L377.376 141.782C377.704 141.453 378.15 141.269 378.614 141.269C379.078 141.269 379.523 141.453 379.851 141.782C380.18 142.11 380.364 142.555 380.364 143.019C380.364 143.484 380.18 143.929 379.851 144.257L371.821 152.287C371.661 152.45 371.469 152.58 371.258 152.669C371.047 152.759 370.82 152.805 370.591 152.806Z" fill="white"/>
<path d="M319.413 241H318.094V231.618H314.688V230.431H322.818V231.618H319.413V241ZM326.431 234.079C325.801 234.079 325.283 234.291 324.878 234.716C324.473 235.141 324.246 235.702 324.197 236.4H328.548C328.533 235.702 328.333 235.141 327.947 234.716C327.561 234.291 327.056 234.079 326.431 234.079ZM328.511 238.957H329.771C329.58 239.64 329.192 240.175 328.606 240.561C328.025 240.946 327.305 241.139 326.446 241.139C325.352 241.139 324.485 240.773 323.845 240.041C323.206 239.303 322.886 238.31 322.886 237.06C322.886 235.814 323.208 234.821 323.853 234.079C324.497 233.336 325.362 232.965 326.446 232.965C327.51 232.965 328.347 233.319 328.958 234.027C329.568 234.735 329.873 235.705 329.873 236.935V237.418H324.197V237.477C324.231 238.258 324.451 238.878 324.856 239.337C325.266 239.796 325.806 240.026 326.475 240.026C327.495 240.026 328.174 239.669 328.511 238.957ZM331.428 235.265C331.428 234.611 331.708 234.064 332.27 233.625C332.832 233.185 333.532 232.965 334.372 232.965C335.197 232.965 335.878 233.156 336.416 233.537C336.953 233.917 337.263 234.433 337.346 235.082H336.101C336.013 234.76 335.817 234.506 335.515 234.32C335.217 234.13 334.833 234.035 334.365 234.035C333.891 234.035 333.493 234.145 333.171 234.364C332.853 234.584 332.695 234.867 332.695 235.214C332.695 235.482 332.805 235.707 333.024 235.888C333.249 236.063 333.596 236.208 334.064 236.32L335.28 236.613C336.032 236.793 336.586 237.055 336.943 237.396C337.304 237.738 337.485 238.19 337.485 238.751C337.485 239.45 337.185 240.023 336.584 240.473C335.983 240.917 335.229 241.139 334.321 241.139C333.442 241.139 332.722 240.944 332.16 240.553C331.599 240.163 331.284 239.64 331.215 238.986H332.512C332.619 239.328 332.832 239.596 333.149 239.792C333.466 239.982 333.872 240.077 334.365 240.077C334.897 240.077 335.334 239.962 335.676 239.733C336.018 239.503 336.188 239.208 336.188 238.847C336.188 238.31 335.771 237.938 334.936 237.733L333.581 237.404C332.834 237.223 332.287 236.964 331.94 236.627C331.599 236.286 331.428 235.832 331.428 235.265ZM339.676 231.061H340.936V233.104H342.694V234.159H340.936V238.627C340.936 239.091 341.029 239.428 341.215 239.638C341.4 239.848 341.698 239.953 342.108 239.953C342.289 239.953 342.484 239.943 342.694 239.923V240.985C342.416 241.034 342.169 241.059 341.954 241.059C341.139 241.059 340.555 240.895 340.204 240.568C339.852 240.241 339.676 239.701 339.676 238.949V234.159H338.402V233.104H339.676V231.061ZM348.352 241V233.104H349.553V234.35H349.67C349.851 233.91 350.132 233.571 350.512 233.332C350.893 233.087 351.347 232.965 351.875 232.965C352.392 232.965 352.837 233.09 353.208 233.339C353.584 233.588 353.867 233.925 354.057 234.35H354.175C354.389 233.925 354.712 233.588 355.141 233.339C355.571 233.09 356.054 232.965 356.592 232.965C357.397 232.965 358.017 233.19 358.452 233.639C358.886 234.083 359.104 234.718 359.104 235.543V241H357.844V235.836C357.844 234.679 357.29 234.101 356.181 234.101C355.644 234.101 355.205 234.276 354.863 234.628C354.521 234.979 354.35 235.412 354.35 235.924V241H353.091V235.639C353.091 235.17 352.939 234.796 352.636 234.518C352.339 234.24 351.941 234.101 351.443 234.101C350.93 234.101 350.495 234.296 350.139 234.687C349.787 235.077 349.612 235.551 349.612 236.107V241H348.352ZM362.68 239.235C363.085 239.748 363.661 240.004 364.408 240.004C365.155 240.004 365.731 239.748 366.137 239.235C366.542 238.717 366.745 237.99 366.745 237.052C366.745 236.115 366.542 235.39 366.137 234.877C365.731 234.359 365.155 234.101 364.408 234.101C363.661 234.101 363.085 234.359 362.68 234.877C362.274 235.39 362.072 236.115 362.072 237.052C362.072 237.99 362.274 238.717 362.68 239.235ZM367.067 240.048C366.417 240.775 365.531 241.139 364.408 241.139C363.285 241.139 362.396 240.775 361.742 240.048C361.093 239.315 360.768 238.317 360.768 237.052C360.768 235.783 361.093 234.784 361.742 234.057C362.392 233.329 363.28 232.965 364.408 232.965C365.536 232.965 366.425 233.329 367.074 234.057C367.724 234.784 368.048 235.783 368.048 237.052C368.048 238.317 367.721 239.315 367.067 240.048ZM372.708 241.139C371.697 241.139 370.892 240.768 370.291 240.026C369.691 239.284 369.39 238.292 369.39 237.052C369.39 235.817 369.691 234.828 370.291 234.086C370.897 233.339 371.702 232.965 372.708 232.965C373.26 232.965 373.753 233.09 374.188 233.339C374.627 233.583 374.959 233.92 375.184 234.35H375.294V229.97H376.553V241H375.352V239.74H375.235C374.986 240.18 374.639 240.524 374.195 240.773C373.751 241.017 373.255 241.139 372.708 241.139ZM373.001 234.101C372.283 234.101 371.719 234.364 371.309 234.892C370.899 235.414 370.694 236.134 370.694 237.052C370.694 237.975 370.897 238.698 371.302 239.22C371.712 239.743 372.278 240.004 373.001 240.004C373.719 240.004 374.285 239.74 374.7 239.213C375.115 238.686 375.323 237.965 375.323 237.052C375.323 236.149 375.113 235.431 374.693 234.899C374.278 234.367 373.714 234.101 373.001 234.101ZM381.909 234.079C381.279 234.079 380.762 234.291 380.356 234.716C379.951 235.141 379.724 235.702 379.675 236.4H384.026C384.011 235.702 383.811 235.141 383.425 234.716C383.039 234.291 382.534 234.079 381.909 234.079ZM383.989 238.957H385.249C385.059 239.64 384.67 240.175 384.084 240.561C383.503 240.946 382.783 241.139 381.924 241.139C380.83 241.139 379.963 240.773 379.324 240.041C378.684 239.303 378.364 238.31 378.364 237.06C378.364 235.814 378.686 234.821 379.331 234.079C379.976 233.336 380.84 232.965 381.924 232.965C382.988 232.965 383.826 233.319 384.436 234.027C385.046 234.735 385.351 235.705 385.351 236.935V237.418H379.675V237.477C379.709 238.258 379.929 238.878 380.334 239.337C380.745 239.796 381.284 240.026 381.953 240.026C382.974 240.026 383.652 239.669 383.989 238.957Z" fill="#233A59"/>
<rect opacity="0.1" x="314" y="252" width="49" height="20" rx="4" fill="#5B3FFF"/>
<path d="M325.031 265.051V266H319.898V257.545H320.953V265.051H325.031ZM328.576 260.463C328.072 260.463 327.658 260.633 327.334 260.973C327.009 261.312 326.828 261.762 326.789 262.32H330.269C330.257 261.762 330.097 261.312 329.789 260.973C329.48 260.633 329.076 260.463 328.576 260.463ZM330.24 264.365H331.248C331.095 264.912 330.785 265.34 330.316 265.648C329.851 265.957 329.275 266.111 328.588 266.111C327.713 266.111 327.019 265.818 326.507 265.232C325.996 264.643 325.74 263.848 325.74 262.848C325.74 261.852 325.998 261.057 326.513 260.463C327.029 259.869 327.72 259.572 328.588 259.572C329.439 259.572 330.109 259.855 330.597 260.422C331.086 260.988 331.33 261.764 331.33 262.748V263.135H326.789V263.182C326.816 263.807 326.992 264.303 327.316 264.67C327.644 265.037 328.076 265.221 328.611 265.221C329.427 265.221 329.97 264.936 330.24 264.365ZM332.004 259.684H333.082L334.81 264.887H334.904L336.633 259.684H337.711L335.373 266H334.342L332.004 259.684ZM341.104 260.463C340.6 260.463 340.186 260.633 339.861 260.973C339.537 261.312 339.356 261.762 339.316 262.32H342.797C342.785 261.762 342.625 261.312 342.316 260.973C342.008 260.633 341.604 260.463 341.104 260.463ZM342.768 264.365H343.775C343.623 264.912 343.313 265.34 342.844 265.648C342.379 265.957 341.803 266.111 341.115 266.111C340.24 266.111 339.547 265.818 339.035 265.232C338.524 264.643 338.268 263.848 338.268 262.848C338.268 261.852 338.525 261.057 339.041 260.463C339.557 259.869 340.248 259.572 341.115 259.572C341.967 259.572 342.637 259.855 343.125 260.422C343.613 260.988 343.858 261.764 343.858 262.748V263.135H339.316V263.182C339.344 263.807 339.52 264.303 339.844 264.67C340.172 265.037 340.604 265.221 341.139 265.221C341.955 265.221 342.498 264.936 342.768 264.365ZM345.258 266V257.176H346.266V266H345.258ZM352.852 262.104V261.201H353.878C354.358 261.201 354.751 261.061 355.055 260.779C355.364 260.498 355.518 260.139 355.518 259.701C355.518 259.271 355.37 258.926 355.073 258.664C354.776 258.398 354.384 258.266 353.895 258.266C353.407 258.266 353.013 258.395 352.712 258.652C352.411 258.906 352.239 259.26 352.196 259.713H351.171C351.225 258.979 351.499 258.4 351.991 257.979C352.483 257.557 353.132 257.346 353.936 257.346C354.421 257.346 354.866 257.445 355.272 257.645C355.682 257.84 356.005 258.107 356.239 258.447C356.473 258.787 356.591 259.158 356.591 259.561C356.591 260.064 356.46 260.49 356.198 260.838C355.936 261.186 355.573 261.416 355.108 261.529V261.623C355.682 261.697 356.134 261.922 356.462 262.297C356.79 262.668 356.954 263.143 356.954 263.721C356.954 264.416 356.667 265.004 356.093 265.484C355.518 265.961 354.813 266.199 353.977 266.199C353.118 266.199 352.417 265.98 351.874 265.543C351.331 265.102 351.04 264.52 351.001 263.797H352.02C352.067 264.246 352.266 264.605 352.618 264.875C352.97 265.145 353.419 265.279 353.966 265.279C354.52 265.279 354.975 265.131 355.331 264.834C355.69 264.537 355.87 264.156 355.87 263.691C355.87 263.203 355.696 262.816 355.348 262.531C355.001 262.246 354.526 262.104 353.925 262.104H352.852Z" fill="#5B3FFF"/>
<path d="M232.191 89.6915L225.886 111.894L232.191 124.501C232.191 124.501 226.437 134.37 195.46 132.999L209.609 111.409L209.438 97.9134C217.66 97.4419 225.567 94.5849 232.191 89.6915Z" fill="#E2ED62"/>
<path d="M195.462 132.999C195.462 132.999 210.539 126.144 214.376 120.938L204.92 102.024L195.464 104.766V133.001L195.462 132.999Z" fill="#D4DD6A"/>
<path d="M149.959 81.1954C149.959 81.1954 183.948 65.2957 214.374 83.9374V120.94C214.374 120.94 202.332 109.158 164.507 115.178L149.959 81.1954Z" fill="#E2ED62"/>
<path d="M197.266 97.1185H180.432C179.803 97.1118 179.202 96.8588 178.758 96.4138C178.314 95.9687 178.062 95.3672 178.056 94.7385L178.084 94.5735V94.5457C178.08 94.2158 178.141 93.8884 178.264 93.5824C178.387 93.2764 178.57 92.9979 178.802 92.7633C179.034 92.5286 179.31 92.3424 179.615 92.2156C179.919 92.0887 180.246 92.0237 180.576 92.0243H192.234C192.983 92.0401 193.711 91.772 194.27 91.2737C194.83 90.7755 195.181 90.084 195.252 89.3379C195.27 88.9515 195.21 88.5654 195.075 88.2028C194.94 87.8403 194.733 87.509 194.466 87.2287C194.2 86.9484 193.879 86.7251 193.524 86.5721C193.168 86.4192 192.786 86.3398 192.399 86.3388H180.044C179.721 86.3348 179.402 86.2658 179.105 86.1359C178.809 86.006 178.542 85.8178 178.32 85.5826C178.098 85.3473 177.925 85.0698 177.813 84.7666C177.7 84.4633 177.65 84.1405 177.664 83.8174V83.7595C177.652 83.4369 177.704 83.1151 177.818 82.8129C177.931 82.5107 178.104 82.2342 178.325 81.9994C178.547 81.7647 178.813 81.5764 179.108 81.4457C179.403 81.315 179.722 81.2444 180.044 81.2381H187.217C187.955 81.253 188.672 80.9871 189.222 80.4941C189.773 80.001 190.115 79.3176 190.182 78.5817C190.206 78.1963 190.15 77.8099 190.019 77.4467C189.888 77.0835 189.683 76.751 189.419 76.4699C189.154 76.1888 188.834 75.965 188.479 75.8124C188.124 75.6598 187.742 75.5815 187.356 75.5826H170.559C163.473 76.4996 156.546 78.38 149.97 81.1717L163.755 113.38H187.6C188.337 113.364 189.037 113.058 189.55 112.53C190.064 112.001 190.348 111.291 190.342 110.555C190.339 109.806 190.041 109.089 189.511 108.56C188.982 108.03 188.265 107.732 187.517 107.729H179.487C179.176 107.732 178.867 107.674 178.578 107.557C178.289 107.44 178.026 107.267 177.805 107.048C177.583 106.829 177.407 106.568 177.287 106.28C177.167 105.993 177.105 105.684 177.105 105.373V105.158C177.086 104.852 177.13 104.546 177.233 104.257C177.337 103.969 177.498 103.704 177.708 103.48C177.917 103.256 178.17 103.078 178.451 102.955C178.732 102.833 179.035 102.769 179.342 102.768H197.09C197.837 102.788 198.565 102.525 199.127 102.032C199.689 101.539 200.044 100.853 200.122 100.109C200.139 99.7229 200.079 99.3372 199.943 98.9751C199.808 98.6131 199.601 98.2823 199.334 98.0027C199.067 97.7231 198.746 97.5006 198.39 97.3487C198.035 97.1967 197.652 97.1184 197.266 97.1185Z" fill="#D4DD6A"/>
<path d="M180.663 159.811C179.956 160.099 179.162 160.093 178.459 159.796C177.755 159.498 177.198 158.934 176.91 158.226L145.344 79.8457C145.057 79.1378 145.063 78.3447 145.36 77.6409C145.657 76.9371 146.222 76.3801 146.93 76.0925C147.638 75.8052 148.431 75.8107 149.135 76.108C149.838 76.4053 150.395 76.9699 150.683 77.6778L182.251 156.062C182.393 156.413 182.465 156.788 182.462 157.166C182.459 157.544 182.382 157.918 182.234 158.266C182.087 158.614 181.872 158.93 181.603 159.195C181.333 159.46 181.014 159.669 180.663 159.811Z" fill="#FFCC5B"/>
<path d="M146.604 81.2082C149.699 81.2082 152.208 78.6992 152.208 75.6041C152.208 72.509 149.699 70 146.604 70C143.509 70 141 72.509 141 75.6041C141 78.6992 143.509 81.2082 146.604 81.2082Z" fill="#FDBC4B"/>
<defs>
<filter id="filter0_d" x="86" y="0" width="203" height="238" filterUnits="userSpaceOnUse" color-interpolation-filters="sRGB">
<feFlood flood-opacity="0" result="BackgroundImageFix"/>
<feColorMatrix in="SourceAlpha" type="matrix" values="0 0 0 0 0 0 0 0 0 0 0 0 0 0 0 0 0 0 127 0"/>
<feOffset dy="4"/>
<feGaussianBlur stdDeviation="8"/>
<feColorMatrix type="matrix" values="0 0 0 0 0 0 0 0 0 0 0 0 0 0 0 0 0 0 0.08 0"/>
<feBlend mode="normal" in2="BackgroundImageFix" result="effect1_dropShadow"/>
<feBlend mode="normal" in="SourceGraphic" in2="effect1_dropShadow" result="shape"/>
</filter>
<filter id="filter1_d" x="-111" y="0" width="203" height="238" filterUnits="userSpaceOnUse" color-interpolation-filters="sRGB">
<feFlood flood-opacity="0" result="BackgroundImageFix"/>
<feColorMatrix in="SourceAlpha" type="matrix" values="0 0 0 0 0 0 0 0 0 0 0 0 0 0 0 0 0 0 127 0"/>
<feOffset dy="4"/>
<feGaussianBlur stdDeviation="8"/>
<feColorMatrix type="matrix" values="0 0 0 0 0 0 0 0 0 0 0 0 0 0 0 0 0 0 0.08 0"/>
<feBlend mode="normal" in2="BackgroundImageFix" result="effect1_dropShadow"/>
<feBlend mode="normal" in="SourceGraphic" in2="effect1_dropShadow" result="shape"/>
</filter>
<filter id="filter2_d" x="283" y="0" width="203" height="238" filterUnits="userSpaceOnUse" color-interpolation-filters="sRGB">
<feFlood flood-opacity="0" result="BackgroundImageFix"/>
<feColorMatrix in="SourceAlpha" type="matrix" values="0 0 0 0 0 0 0 0 0 0 0 0 0 0 0 0 0 0 127 0"/>
<feOffset dy="4"/>
<feGaussianBlur stdDeviation="8"/>
<feColorMatrix type="matrix" values="0 0 0 0 0 0 0 0 0 0 0 0 0 0 0 0 0 0 0.08 0"/>
<feBlend mode="normal" in2="BackgroundImageFix" result="effect1_dropShadow"/>
<feBlend mode="normal" in="SourceGraphic" in2="effect1_dropShadow" result="shape"/>
</filter>
</defs>
</svg>
